<svg width="47" height="52" viewBox="0 0 47 52" fill="none" xmlns="http://www.w3.org/2000/svg">
<path d="M34.75 19.4231L12.25 6.49844M1.675 13.3468L23.5 25.9227L45.325 13.3468M23.5 51V25.8978M46 35.859V15.9367C45.9991 15.0632 45.7676 14.2054 45.3288 13.4493C44.8901 12.6931 44.2593 12.0652 43.5 11.6284L26 1.66727C25.2399 1.23013 24.3777 1 23.5 1C22.6223 1 21.7601 1.23013 21 1.66727L3.5 11.6284C2.74066 12.0652 2.10995 12.6931 1.67115 13.4493C1.23236 14.2054 1.0009 15.0632 1 15.9367V35.859C1.0009 36.7324 1.23236 37.5902 1.67115 38.3464C2.10995 39.1026 2.74066 39.7305 3.5 40.1672L21 50.1284C21.7601 50.5655 22.6223 50.7957 23.5 50.7957C24.3777 50.7957 25.2399 50.5655 26 50.1284L43.5 40.1672C44.2593 39.7305 44.8901 39.1026 45.3288 38.3464C45.7676 37.5902 45.9991 36.7324 46 35.859Z" stroke="#333333" stroke-width="2" stroke-linecap="round" stroke-linejoin="round"/>
</svg>
