<svg width="24" height="24" viewBox="0 0 24 24" fill="none" xmlns="http://www.w3.org/2000/svg">
<path d="M1 1H5L7.68 14.39C7.77144 14.8504 8.02191 15.264 8.38755 15.5583C8.75318 15.8526 9.2107 16.009 9.68 16H19.4C19.8693 16.009 20.3268 15.8526 20.6925 15.5583C21.0581 15.264 21.3086 14.8504 21.4 14.39L23 6H6M11.0752 20.5C11.0752 21.3284 10.4036 22 9.5752 22C8.74677 22 8.0752 21.3284 8.0752 20.5C8.0752 19.6716 8.74677 19 9.5752 19C10.4036 19 11.0752 19.6716 11.0752 20.5ZM21.0752 20.5C21.0752 21.3284 20.4036 22 19.5752 22C18.7468 22 18.0752 21.3284 18.0752 20.5C18.0752 19.6716 18.7468 19 19.5752 19C20.4036 19 21.0752 19.6716 21.0752 20.5Z" stroke="black" stroke-opacity="0.3" stroke-width="1.5" stroke-linecap="round" stroke-linejoin="round"/>
</svg>
