<svg width="46" height="52" viewBox="0 0 46 52" fill="none" xmlns="http://www.w3.org/2000/svg">
<path d="M1 11L8.33333 1H37.6667L45 11M1 11V46C1 47.3261 1.51508 48.5979 2.43192 49.5355C3.34877 50.4732 4.59228 51 5.88889 51H40.1111C41.4077 51 42.6512 50.4732 43.5681 49.5355C44.4849 48.5979 45 47.3261 45 46V11M1 11H45M32.7778 21C32.7778 23.6522 31.7476 26.1957 29.9139 28.0711C28.0802 29.9464 25.5932 31 23 31C20.4068 31 17.9198 29.9464 16.0861 28.0711C14.2524 26.1957 13.2222 23.6522 13.2222 21" stroke="#333333" stroke-width="2" stroke-linecap="round" stroke-linejoin="round"/>
</svg>
