<svg width="27" height="27" viewBox="0 0 27 27" fill="none" xmlns="http://www.w3.org/2000/svg">
<path d="M23.5 13.5V26H3.5V13.5M13.5 26V7.25M13.5 7.25H7.875C7.0462 7.25 6.25134 6.92076 5.66529 6.33471C5.07924 5.74866 4.75 4.9538 4.75 4.125C4.75 3.2962 5.07924 2.50134 5.66529 1.91529C6.25134 1.32924 7.0462 1 7.875 1C12.25 1 13.5 7.25 13.5 7.25ZM13.5 7.25H19.125C19.9538 7.25 20.7487 6.92076 21.3347 6.33471C21.9208 5.74866 22.25 4.9538 22.25 4.125C22.25 3.2962 21.9208 2.50134 21.3347 1.91529C20.7487 1.32924 19.9538 1 19.125 1C14.75 1 13.5 7.25 13.5 7.25ZM1 7.25H26V13.5H1V7.25Z" stroke="#333333" stroke-width="1.5" stroke-linecap="round" stroke-linejoin="round"/>
</svg>
