<svg width="109" height="51" viewBox="0 0 109 51" fill="none" xmlns="http://www.w3.org/2000/svg">
<path d="M4.8 42.15C3.8 42.15 2.98333 41.8833 2.35 41.35C1.71667 40.8167 1.38333 40.1 1.35 39.2C1.31667 38.3 1.3 36.9833 1.3 35.25C1.3 24.8833 2.2 15.7 4 7.7H2.65C1.85 7.7 1.2 7.4 0.7 6.8C0.233333 6.2 1.41561e-07 5.48333 1.41561e-07 4.65C1.41561e-07 3.81667 0.233333 3.1 0.7 2.5C1.2 1.9 1.85 1.6 2.65 1.6H15.75C20.3167 1.6 23.9167 2.68333 26.55 4.85C29.2167 6.98333 30.55 9.96667 30.55 13.8C30.55 16.5333 29.8667 18.8667 28.5 20.8C27.1333 22.7333 25.2 24.15 22.7 25.05C24.4333 26.45 26.0167 28.2833 27.45 30.55C28.8833 32.7833 30.0167 35.35 30.85 38.25C30.95 38.55 31 38.85 31 39.15C31 39.7833 30.7833 40.35 30.35 40.85C29.95 41.35 29.4167 41.7 28.75 41.9C28.15 42.0667 27.6167 42.15 27.15 42.15C25.8833 42.15 25 41.5667 24.5 40.4C23.2 36.9333 21.6833 33.9333 19.95 31.4C18.2167 28.8333 16.4333 27.0833 14.6 26.15H8.4C8.3 28.65 8.25 31.35 8.25 34.25L8.3 39.3C8.3 40.1667 7.96667 40.85 7.3 41.35C6.66667 41.8833 5.83333 42.15 4.8 42.15ZM15.75 20.05C18.2167 20.05 20.1333 19.5167 21.5 18.45C22.9 17.35 23.6 15.8 23.6 13.8C23.6 11.8333 22.9 10.3333 21.5 9.3C20.1333 8.23333 18.2167 7.7 15.75 7.7H10.35C9.61667 11.9333 9.1 16.05 8.8 20.05H15.75ZM39.3656 42.15C38.3656 42.15 37.5323 41.8833 36.8656 41.35C36.2323 40.8167 35.9156 40.1 35.9156 39.2V16.3C35.9156 15.4 36.2323 14.6833 36.8656 14.15C37.5323 13.6167 38.3656 13.35 39.3656 13.35C40.399 13.35 41.2323 13.6167 41.8656 14.15C42.5323 14.6833 42.8656 15.4 42.8656 16.3V39.2C42.8656 40.1 42.5323 40.8167 41.8656 41.35C41.2323 41.8833 40.399 42.15 39.3656 42.15ZM39.3656 9.15C38.1656 9.15 37.149 8.76667 36.3156 8C35.5156 7.2 35.1156 6.21666 35.1156 5.05C35.1156 3.88333 35.5156 2.9 36.3156 2.1C37.149 1.26667 38.1656 0.85 39.3656 0.85C40.5656 0.85 41.5656 1.26667 42.3656 2.1C43.199 2.9 43.6156 3.88333 43.6156 5.05C43.6156 6.21666 43.199 7.2 42.3656 8C41.5656 8.76667 40.5656 9.15 39.3656 9.15ZM52.398 50.75C51.398 50.75 50.5814 50.45 49.948 49.85C49.3147 49.2833 48.998 48.5333 48.998 47.6V16.45C48.998 15.5167 49.3147 14.7667 49.948 14.2C50.5814 13.6 51.398 13.3 52.398 13.3H52.548C53.4814 13.3 54.2814 13.5667 54.948 14.1C55.6147 14.6 55.948 15.2167 55.948 15.95V16.1C57.848 14.1 60.2814 13.1 63.248 13.1C65.6814 13.1 67.8814 13.75 69.848 15.05C71.848 16.3167 73.4147 18.0833 74.548 20.35C75.6814 22.5833 76.248 25.0833 76.248 27.85C76.248 30.6167 75.698 33.1167 74.598 35.35C73.498 37.55 71.9647 39.2833 69.998 40.55C68.0314 41.8167 65.7814 42.45 63.248 42.45C60.2814 42.45 57.848 41.45 55.948 39.45V47.6C55.948 48.5333 55.6314 49.2833 54.998 49.85C54.3647 50.45 53.548 50.75 52.548 50.75H52.398ZM62.598 36.35C64.598 36.35 66.2147 35.5667 67.448 34C68.6814 32.4 69.298 30.3333 69.298 27.8C69.298 25.2667 68.6814 23.2 67.448 21.6C66.2147 20 64.598 19.2 62.598 19.2C60.598 19.2 58.9814 20 57.748 21.6C56.5147 23.2 55.898 25.2667 55.898 27.8C55.898 30.3333 56.5147 32.4 57.748 34C58.9814 35.5667 60.598 36.35 62.598 36.35ZM94.7676 42.35C92.0676 42.35 89.6509 41.7167 87.5176 40.45C85.3842 39.2167 83.7176 37.5 82.5176 35.3C81.3509 33.0667 80.7676 30.5333 80.7676 27.7C80.7676 24.9 81.3509 22.4 82.5176 20.2C83.7176 17.9667 85.3842 16.2333 87.5176 15C89.6509 13.7333 92.0676 13.1 94.7676 13.1C97.4676 13.1 99.8842 13.7333 102.018 15C104.151 16.2333 105.801 17.9667 106.968 20.2C108.168 22.4 108.768 24.9 108.768 27.7C108.768 30.5333 108.168 33.0667 106.968 35.3C105.801 37.5 104.151 39.2167 102.018 40.45C99.8842 41.7167 97.4676 42.35 94.7676 42.35ZM94.7676 36.25C96.8342 36.25 98.5176 35.45 99.8176 33.85C101.151 32.25 101.818 30.2167 101.818 27.75C101.818 25.25 101.151 23.2 99.8176 21.6C98.5176 20 96.8342 19.2 94.7676 19.2C92.7009 19.2 91.0009 20 89.6676 21.6C88.3676 23.2 87.7176 25.25 87.7176 27.75C87.7176 30.2167 88.3676 32.25 89.6676 33.85C91.0009 35.45 92.7009 36.25 94.7676 36.25Z" fill="#C9B6E4"/>
</svg>
