<svg width="41" height="41" viewBox="0 0 41 41" fill="none" xmlns="http://www.w3.org/2000/svg">
<g filter="url(#filter0_d_416_3631)">
<rect x="3" y="2" width="31" height="31" rx="5" fill="#BB9EE5"/>
</g>
<path d="M6.608 22.476C6.368 22.476 6.168 22.404 6.008 22.26C5.856 22.124 5.78 21.944 5.78 21.72C5.78 19.24 5.856 16.736 6.008 14.208C5.816 14.208 5.668 14.14 5.564 14.004C5.46 13.86 5.408 13.684 5.408 13.476C5.408 13.276 5.464 13.104 5.576 12.96C5.696 12.816 5.852 12.744 6.044 12.744H6.824C7.24 12.768 7.528 12.908 7.688 13.164L11.252 19.128L11.216 17.364V13.452C11.216 13.212 11.284 13.028 11.42 12.9C11.564 12.764 11.764 12.696 12.02 12.696C12.292 12.696 12.504 12.764 12.656 12.9C12.808 13.028 12.884 13.212 12.884 13.452V21.72C12.884 22.224 12.612 22.476 12.068 22.476C11.884 22.476 11.716 22.432 11.564 22.344C11.42 22.256 11.28 22.104 11.144 21.888L7.52 16.056C7.472 18.424 7.448 20.312 7.448 21.72C7.448 21.952 7.38 22.136 7.244 22.272C7.116 22.408 6.904 22.476 6.608 22.476ZM16.1807 22.368C15.6207 22.296 15.1847 22.104 14.8727 21.792C14.5607 21.48 14.3927 21.02 14.3687 20.412C14.3607 20.268 14.3567 20.048 14.3567 19.752C14.3567 18.832 14.4287 17.892 14.5727 16.932C14.7167 15.964 14.9207 15.056 15.1847 14.208H14.8847C14.6607 14.208 14.4887 14.14 14.3687 14.004C14.2487 13.86 14.1887 13.684 14.1887 13.476C14.1887 13.268 14.2487 13.096 14.3687 12.96C14.4887 12.816 14.6607 12.744 14.8847 12.744H19.8767C20.1007 12.744 20.2727 12.816 20.3927 12.96C20.5127 13.096 20.5727 13.268 20.5727 13.476C20.5727 13.684 20.5127 13.86 20.3927 14.004C20.2727 14.14 20.1007 14.208 19.8767 14.208H16.7087C16.6047 14.576 16.5007 15.016 16.3967 15.528C16.2927 16.04 16.2207 16.456 16.1807 16.776H19.6367C19.8607 16.776 20.0327 16.844 20.1527 16.98C20.2727 17.116 20.3327 17.288 20.3327 17.496C20.3327 17.704 20.2727 17.876 20.1527 18.012C20.0327 18.148 19.8607 18.216 19.6367 18.216H16.0487C16.0167 18.568 16.0007 18.996 16.0007 19.5C16.0007 19.788 16.0047 20.004 16.0127 20.148C16.0287 20.404 16.0847 20.596 16.1807 20.724C16.2847 20.844 16.4527 20.92 16.6847 20.952C16.9647 20.984 17.3047 21 17.7047 21C18.4887 21 19.2607 20.936 20.0207 20.808C20.0447 20.8 20.0847 20.796 20.1407 20.796C20.3407 20.796 20.5007 20.872 20.6207 21.024C20.7407 21.176 20.8007 21.352 20.8007 21.552C20.8007 21.736 20.7447 21.892 20.6327 22.02C20.5207 22.156 20.3607 22.24 20.1527 22.272C19.2967 22.408 18.5047 22.476 17.7767 22.476C17.2327 22.476 16.7007 22.44 16.1807 22.368ZM24.2221 22.476C23.9901 22.476 23.7941 22.412 23.6341 22.284C23.4741 22.164 23.3661 21.996 23.3101 21.78L21.4141 13.788C21.3901 13.668 21.3781 13.564 21.3781 13.476C21.3781 13.1 21.5461 12.856 21.8821 12.744C22.0181 12.704 22.1381 12.684 22.2421 12.684C22.4261 12.684 22.5861 12.732 22.7221 12.828C22.8581 12.924 22.9461 13.072 22.9861 13.272L24.2941 19.656H24.3181L25.6261 14.604C25.6821 14.364 25.7901 14.184 25.9501 14.064C26.1101 13.944 26.3061 13.884 26.5381 13.884C27.0021 13.884 27.3061 14.124 27.4501 14.604L28.9621 19.656H28.9861C29.0901 18.416 29.2541 17.3 29.4781 16.308C29.7021 15.316 30.0141 14.304 30.4141 13.272C30.4861 13.072 30.5901 12.924 30.7261 12.828C30.8621 12.732 31.0141 12.684 31.1821 12.684C31.2701 12.684 31.3821 12.704 31.5181 12.744C31.6781 12.792 31.8061 12.876 31.9021 12.996C32.0061 13.108 32.0581 13.244 32.0581 13.404C32.0581 13.516 32.0341 13.64 31.9861 13.776C31.5461 14.896 31.1341 16.18 30.7501 17.628C30.3741 19.076 30.0901 20.46 29.8981 21.78C29.8661 21.996 29.7661 22.164 29.5981 22.284C29.4301 22.412 29.2261 22.476 28.9861 22.476C28.7541 22.476 28.5581 22.416 28.3981 22.296C28.2381 22.176 28.1301 22.004 28.0741 21.78L26.5741 16.896H26.5501L25.1341 21.78C25.0701 22.004 24.9581 22.176 24.7981 22.296C24.6381 22.416 24.4461 22.476 24.2221 22.476Z" fill="white"/>
<defs>
<filter id="filter0_d_416_3631" x="0" y="0" width="41" height="41" filterUnits="userSpaceOnUse" color-interpolation-filters="sRGB">
<feFlood flood-opacity="0" result="BackgroundImageFix"/>
<feColorMatrix in="SourceAlpha" type="matrix" values="0 0 0 0 0 0 0 0 0 0 0 0 0 0 0 0 0 0 127 0" result="hardAlpha"/>
<feOffset dx="2" dy="3"/>
<feGaussianBlur stdDeviation="2.5"/>
<feComposite in2="hardAlpha" operator="out"/>
<feColorMatrix type="matrix" values="0 0 0 0 0 0 0 0 0 0 0 0 0 0 0 0 0 0 0.2 0"/>
<feBlend mode="normal" in2="BackgroundImageFix" result="effect1_dropShadow_416_3631"/>
<feBlend mode="normal" in="SourceGraphic" in2="effect1_dropShadow_416_3631" result="shape"/>
</filter>
</defs>
</svg>
